<mxfile host="app.diagrams.net" modified="2023-11-21T13:19:56.025Z" agent="Mozilla/5.0 (Linux; Android 10; K) AppleWebKit/537.36 (KHTML, like Gecko) Chrome/119.0.0.0 Mobile Safari/537.36 EdgA/119.0.0.0" version="22.1.3" etag="y4HJO3QrRh1i1zBgudnw" type="github">
  <diagram name="第 1 页" id="oUR2k8ytDiDzO2kThyHG">
    <mxGraphModel>
      <root>
        <mxCell id="0" />
        <mxCell id="1" parent="0" />
      </root>
    </mxGraphModel>
  </diagram>
</mxfile>
